<svg width="27" height="28" viewBox="0 0 27 28" fill="none" xmlns="http://www.w3.org/2000/svg">
<g clip-path="url(#clip0_237_6)">
<path d="M0.0806773 8.2976C0.102808 7.18202 0.31396 6.07827 0.705153 5.03329C1.0432 4.13605 1.57293 3.32336 2.25738 2.65191C2.92883 1.96746 3.74152 1.43773 4.63876 1.09968C5.68327 0.708655 6.7865 0.497505 7.90158 0.475205C9.33728 0.409471 9.79443 0.394531 13.4457 0.394531C17.0969 0.394531 17.5541 0.409471 18.9883 0.475205C20.1039 0.497336 21.2076 0.708489 22.2526 1.09968C23.1504 1.43754 23.9636 1.96728 24.6355 2.65191C25.3199 3.32336 25.8497 4.13605 26.1877 5.03329C26.5787 6.0778 26.7899 7.18103 26.8122 8.29611C26.8764 9.73181 26.8914 10.189 26.8914 13.8402C26.8914 17.4915 26.8764 17.9486 26.8107 19.3828C26.7886 20.4984 26.5774 21.6021 26.1862 22.6471C25.8482 23.5444 25.3184 24.3571 24.634 25.0285C23.9626 25.713 23.1499 26.2427 22.2526 26.5807C21.2081 26.9718 20.1049 27.1829 18.9898 27.2052C17.5541 27.2709 17.0969 27.2859 13.4457 27.2859C9.79443 27.2859 9.33728 27.2709 7.90307 27.2052C6.78749 27.1831 5.68374 26.9719 4.63876 26.5807C3.74522 26.2353 2.93374 25.7069 2.25634 25.0295C1.57894 24.3522 1.05059 23.5407 0.705153 22.6471C0.314125 21.6026 0.102977 20.4994 0.0806773 19.3843C0.0149428 17.9486 1.90735e-06 17.4915 1.90735e-06 13.8402C1.90735e-06 10.189 0.0149428 9.73181 0.0806773 8.2976ZM2.5009 19.2738C2.51121 20.1258 2.66786 20.9697 2.96403 21.7687C3.1875 22.3488 3.53002 22.8757 3.9695 23.3155C4.40899 23.7552 4.9357 24.098 5.51572 24.3219C6.31517 24.6182 7.1596 24.7748 8.01213 24.785C9.4314 24.8492 9.85568 24.8627 13.4457 24.8627C17.0357 24.8627 17.4615 24.8492 18.8792 24.785C19.7313 24.7747 20.5752 24.618 21.3741 24.3219C21.9588 24.1067 22.4877 23.7631 22.9219 23.3164C23.3684 22.8826 23.7119 22.3542 23.9273 21.7702C24.2237 20.9707 24.3803 20.1263 24.3905 19.2738C24.4547 17.8545 24.4681 17.4302 24.4681 13.8402C24.4681 10.2502 24.4547 9.82443 24.3905 8.40666C24.3801 7.55463 24.2235 6.71072 23.9273 5.91174C23.7121 5.32713 23.3686 4.79823 22.9219 4.36399C22.4881 3.91751 21.9597 3.57394 21.3756 3.35856C20.5762 3.06225 19.7318 2.90559 18.8792 2.89543C17.46 2.83119 17.0357 2.81774 13.4457 2.81774C9.85568 2.81774 9.4299 2.83119 8.01213 2.89543C7.1601 2.90576 6.31619 3.06242 5.51721 3.35856C4.9326 3.57374 4.4037 3.91732 3.96946 4.36399C3.52298 4.7978 3.17941 5.32617 2.96403 5.91025C2.66772 6.70969 2.51106 7.55413 2.5009 8.40666C2.43666 9.82593 2.42321 10.2502 2.42321 13.8402C2.42321 17.4302 2.43666 17.856 2.5009 19.2738V19.2738ZM13.4457 6.93511C14.8114 6.93511 16.1464 7.34008 17.2819 8.09883C18.4175 8.85757 19.3025 9.936 19.8252 11.1977C20.3478 12.4595 20.4845 13.8479 20.2181 15.1873C19.9517 16.5268 19.294 17.7572 18.3283 18.7229C17.3626 19.6885 16.1323 20.3462 14.7928 20.6126C13.4533 20.8791 12.065 20.7423 10.8032 20.2197C9.54147 19.6971 8.46304 18.812 7.7043 17.6765C6.94555 16.5409 6.54058 15.2059 6.54058 13.8402C6.54058 12.0089 7.26808 10.2525 8.56303 8.95756C9.85799 7.66261 11.6143 6.93511 13.4457 6.93511V6.93511ZM13.4457 18.3221C14.3321 18.3221 15.1986 18.0592 15.9357 17.5668C16.6727 17.0743 17.2472 16.3743 17.5864 15.5554C17.9256 14.7364 18.0144 13.8352 17.8415 12.9658C17.6685 12.0964 17.2417 11.2978 16.6149 10.671C15.9881 10.0442 15.1895 9.61737 14.3201 9.44444C13.4507 9.2715 12.5495 9.36026 11.7305 9.69948C10.9116 10.0387 10.2116 10.6132 9.71912 11.3502C9.22665 12.0872 8.96379 12.9538 8.96379 13.8402C8.96379 15.0289 9.43598 16.1689 10.2765 17.0094C11.117 17.8499 12.257 18.3221 13.4457 18.3221ZM4.65519 6.66321C4.65519 6.98232 4.74982 7.29427 4.92711 7.55961C5.10441 7.82494 5.3564 8.03175 5.65122 8.15387C5.94605 8.27599 6.27047 8.30794 6.58345 8.24568C6.89643 8.18343 7.18393 8.02976 7.40958 7.80411C7.63523 7.57846 7.7889 7.29096 7.85115 6.97798C7.91341 6.665 7.88146 6.34058 7.75934 6.04575C7.63722 5.75093 7.43041 5.49894 7.16508 5.32164C6.89974 5.14435 6.58779 5.04972 6.26868 5.04972C5.84075 5.04972 5.43036 5.21972 5.12777 5.5223C4.82519 5.82489 4.65519 6.23528 4.65519 6.66321V6.66321Z" fill="white"/>
</g>
<defs>
<clipPath id="clip0_237_6">
<rect width="26.8914" height="26.8914" fill="white" transform="matrix(-1 0 0 1 26.8914 0.394531)"/>
</clipPath>
</defs>
</svg>
