<svg width="31" height="28" viewBox="0 0 31 28" fill="none" xmlns="http://www.w3.org/2000/svg">
<path d="M29.153 0.636638C28.7663 0.318283 28.2996 0.109637 27.8026 0.0329055C27.3056 -0.0438259 26.7968 0.014228 26.3305 0.200889L1.99064 9.92542C1.47011 10.1374 1.02703 10.5009 0.720191 10.9679C0.413354 11.4348 0.257277 11.9831 0.272676 12.5399C0.288074 13.0967 0.47422 13.6356 0.806406 14.0853C1.13859 14.5349 1.60111 14.874 2.13257 15.0574L7.05598 16.7519L9.8002 25.7322C9.83749 25.8522 9.89161 25.9664 9.96098 26.0714C9.9715 26.0876 9.98635 26.0996 9.99754 26.1152C10.0777 26.2259 10.1745 26.3237 10.2847 26.4052C10.316 26.4289 10.346 26.451 10.3795 26.472C10.5085 26.5567 10.6513 26.6185 10.8016 26.6549L10.8176 26.6563L10.8268 26.6601C10.9171 26.6783 11.0091 26.6876 11.1013 26.6877C11.1102 26.6877 11.1181 26.6835 11.1268 26.6833C11.266 26.6809 11.404 26.6572 11.5358 26.613C11.5664 26.6027 11.5927 26.5854 11.6225 26.5729C11.7208 26.5326 11.8139 26.4809 11.8999 26.419C11.9688 26.3615 12.0378 26.3041 12.1067 26.2467L15.7767 22.2369L21.2506 26.4331C21.7325 26.8043 22.3256 27.0062 22.9364 27.0067C23.5763 27.0058 24.1965 26.7873 24.693 26.3878C25.1895 25.9882 25.5321 25.4319 25.6634 24.8121L30.0947 3.28533C30.1951 2.80083 30.1605 2.29843 29.9947 1.83188C29.8288 1.36533 29.5379 0.952182 29.153 0.636638ZM11.6399 17.1798C11.4515 17.3654 11.3228 17.6019 11.2698 17.8597L10.8494 19.8811L9.78454 16.3959L15.3059 13.5507L11.6399 17.1798ZM22.9152 24.3081L16.4466 19.3493C16.1759 19.1424 15.8364 19.044 15.4957 19.0736C15.155 19.1033 14.8382 19.2589 14.6082 19.5095L13.4328 20.7933L13.8482 18.7955L23.4682 9.27568C23.6979 9.04875 23.8378 8.74795 23.8626 8.42776C23.8875 8.10757 23.7956 7.78916 23.6037 7.53021C23.4117 7.27126 23.1324 7.08889 22.8164 7.01614C22.5003 6.94339 22.1683 6.98507 21.8806 7.13363L8.07428 14.2471L3.01592 12.4153L27.434 2.74847L22.9152 24.3081Z" fill="white"/>
</svg>
