<?xml version="1.0" standalone="no"?>
<!DOCTYPE svg PUBLIC "-//W3C//DTD SVG 20010904//EN"
 "http://www.w3.org/TR/2001/REC-SVG-20010904/DTD/svg10.dtd">
<svg version="1.0" xmlns="http://www.w3.org/2000/svg"
 width="1216.000000pt" height="1216.000000pt" viewBox="0 0 1216.000000 1216.000000"
 preserveAspectRatio="xMidYMid meet">
<metadata>
Created by potrace 1.14, written by Peter Selinger 2001-2017
</metadata>
<g transform="translate(0.000000,1216.000000) scale(0.100000,-0.100000)"
fill="#000000" stroke="none">
<path d="M5398 8672 c-361 -361 -675 -674 -697 -696 l-39 -39 -692 692 c-380
380 -694 691 -699 691 -5 0 -3221 -3210 -3239 -3233 -3 -6 3230 -3237 3239
-3237 4 0 318 311 698 690 379 380 693 690 696 690 3 0 317 -311 696 -691 380
-379 695 -689 701 -687 5 2 322 315 702 696 l693 692 699 -699 699 -700 1623
1622 1622 1622 -1622 1622 -1622 1622 -694 -695 c-382 -382 -697 -694 -702
-694 -4 0 -320 313 -703 695 -382 382 -697 695 -698 695 -2 0 -300 -296 -661
-658z m-1645 -729 l457 -459 -695 -695 c-382 -381 -695 -697 -695 -701 0 -4
313 -320 696 -703 l697 -697 -471 -471 -471 -471 -1167 1167 c-804 804 -1163
1170 -1158 1179 4 7 528 533 1163 1169 878 878 1160 1155 1171 1148 8 -4 221
-214 473 -466z m2782 7 c256 -255 465 -468 465 -471 0 -6 -839 -849 -913 -918
l-26 -23 -470 470 c-259 259 -471 473 -471 475 0 11 934 937 942 935 5 -2 218
-212 473 -468z m3489 -695 c642 -641 1166 -1168 1166 -1170 0 -7 -2332 -2336
-2336 -2333 -2 2 -215 214 -474 472 l-470 469 692 694 c381 381 695 695 697
698 2 2 -308 316 -688 696 -380 381 -690 696 -689 701 3 8 929 938 934 938 2
0 527 -524 1168 -1165z m-4887 -1642 l-472 -473 -473 473 -473 474 472 472
473 472 473 -473 473 -473 -473 -472z m2792 4 c-355 -354 -472 -467 -482 -459
-39 33 -920 920 -920 927 0 5 210 218 466 475 l467 466 469 -470 469 -470
-469 -469z m-1433 -416 c236 -236 447 -447 468 -470 l39 -40 -472 -472 -472
-472 -471 471 -471 470 469 471 c258 258 472 470 475 470 4 1 199 -192 435
-428z"/>
</g>
</svg>
